<svg width="32" height="32" viewBox="0 0 32 32" fill="none" xmlns="http://www.w3.org/2000/svg">
<path fill-rule="evenodd" clip-rule="evenodd" d="M16 32C24.8366 32 32 24.8366 32 16C32 7.16344 24.8366 0 16 0C7.16344 0 0 7.16344 0 16C0 24.8366 7.16344 32 16 32ZM25.8953 15.0539C26.1481 14.9952 26.4164 14.9595 26.6877 14.9595C27.1228 14.9594 27.5533 15.041 27.9553 15.2004C28.3573 15.3598 28.7226 15.5934 29.0302 15.888C29.3379 16.1826 29.5819 16.5324 29.7483 16.9173C29.9147 17.3022 30.0002 17.7147 30 18.1313C30 19.882 28.5175 21.3043 26.6869 21.3043C26.2595 21.3043 25.8526 21.2224 25.478 21.0822C25.1953 21.7574 24.8352 22.4005 24.4043 22.9996L21.682 21.2305C22.4123 20.3295 22.8593 18.991 22.9249 17.6672C22.9973 16.2401 22.625 14.8285 21.6731 13.9895C19.7004 12.3864 17.5596 13.094 16.2023 14.6167H15.8401C14.4828 13.0634 12.3177 12.3244 10.3292 13.9452C9.36457 14.7897 8.99615 16.2261 9.07862 17.6724C9.15338 18.9836 9.59772 20.3011 10.3249 21.1958L10.3604 21.2172L7.59877 23C7.16586 22.4017 6.8048 21.7587 6.52241 21.0829C6.14782 21.2239 5.74009 21.305 5.31232 21.305C3.48679 21.305 2 19.8831 2 18.1332C2 16.3799 3.4864 14.9602 5.31232 14.9602C5.57943 14.9612 5.84545 14.9929 6.10466 15.0546C7.14826 11.1017 10.7092 8.10841 15.0601 7.7295C15.3965 6.70714 14.6038 5.97292 14.3548 5.75266C14.3047 5.70912 14.4038 5.67666 14.4038 5.67666C15.6586 6.25296 15.8636 7.06317 15.8351 7.60258C16.4883 5.87515 19.3778 5 19.3778 5L19.4295 5.09703C17.7041 6.09505 17.4402 7.13069 17.5018 7.79111C21.5938 8.37073 24.8972 11.2707 25.8953 15.0539Z" fill="white"/>
</svg>
