<svg width="512" height="512" viewBox="0 0 512 512" fill="none" xmlns="http://www.w3.org/2000/svg">
<g clip-path="url(#clip0_716_2)">
<circle cx="256" cy="256" r="256" fill="#3B82F6"/>
<path d="M415.985 330.125C403.001 358.625 382.576 381.425 354.71 398.525C327.16 415.625 296.601 424.175 263.035 424.175C215.535 424.175 175.318 408.183 142.385 376.2C109.768 343.9 93.4597 304.317 93.4597 257.45C93.4597 210.583 109.926 170.842 142.86 138.225C176.11 105.292 216.168 88.825 263.035 88.825C295.651 88.825 325.893 97.5333 353.76 114.95C381.626 132.05 402.21 154.692 415.51 182.875C417.41 186.992 417.568 190.475 415.985 193.325C414.718 195.858 411.868 197.125 407.435 197.125H356.135C352.335 197.125 349.326 196.65 347.11 195.7C344.893 194.433 342.518 192.217 339.985 189.05C330.485 177.017 319.085 167.675 305.785 161.025C292.485 154.058 278.235 150.575 263.035 150.575C235.485 150.575 212.051 160.867 192.735 181.45C173.735 202.033 164.235 227.05 164.235 256.5C164.235 285.95 173.735 310.967 192.735 331.55C212.051 352.133 235.485 362.425 263.035 362.425C277.918 362.425 292.168 358.942 305.785 351.975C319.718 344.692 331.593 334.875 341.41 322.525C343.943 319.675 346.318 317.775 348.535 316.825C351.068 315.558 354.235 314.925 358.035 314.925H408.385C412.818 314.925 415.668 316.35 416.935 319.2C418.518 322.05 418.201 325.692 415.985 330.125Z" fill="white"/>
</g>
<defs>
<clipPath id="clip0_716_2">
<rect width="512" height="512" fill="white"/>
</clipPath>
</defs>
</svg>
